<?xml version="1.0" encoding="iso-8859-1"?>
<!-- Generator: Adobe Illustrator 19.0.0, SVG Export Plug-In . SVG Version: 6.00 Build 0)  -->
<svg version="1.1" id="Capa_1" xmlns="http://www.w3.org/2000/svg" xmlns:xlink="http://www.w3.org/1999/xlink" x="0px" y="0px"
	 viewBox="0 0 511.608 511.608" style="enable-background:new 0 0 511.608 511.608;" xml:space="preserve">
<circle style="fill:#94C1FF;" cx="75.865" cy="203.844" r="55.957"/>
<g style="opacity:0.4;">
	<path style="fill:#FFFFFF;" d="M35.891,203.844c0-28.182,20.859-51.438,47.963-55.325c-2.615-0.375-5.269-0.632-7.994-0.632
		c-30.906,0-55.957,25.051-55.957,55.957s25.051,55.957,55.957,55.957c2.725,0,5.378-0.258,7.994-0.632
		C56.75,255.281,35.891,232.026,35.891,203.844z"/>
</g>
<polygon style="fill:#D7E9FF;" points="211.756,211.838 211.756,251.807 203.762,251.807 91.848,251.807 83.854,251.807 
	83.854,211.838 131.263,211.838 "/>
<path style="fill:#94C1FF;" d="M203.762,507.611H91.848c-4.395,0-7.994-3.599-7.994-7.994V259.239v-7.432h7.994h111.914h7.994
	v247.81C211.756,504.012,208.158,507.611,203.762,507.611z"/>
<path style="fill:#D7E9FF;" d="M427.75,77.699c47.963,22.226,39.97,70.188,63.951,86.176h-7.994H283.861h-7.993
	c23.981-15.987,15.987-63.95,63.95-86.176v-9.75V51.96V35.973V19.985V3.997h87.933v15.988v15.988V51.96v15.988L427.75,77.699
	L427.75,77.699z"/>
<path style="fill:#FFFFFF;" d="M363.799,77.699v-9.75V51.96V35.973V19.985V3.997h-23.981v15.988v15.988V51.96v15.988v9.75
	c-47.963,22.226-39.969,70.188-63.95,86.176h7.993h15.988C323.83,147.887,315.836,99.924,363.799,77.699z"/>
<path style="fill:#D7E9FF;" d="M483.707,176.825c0,0,7.994,170.908-31.976,330.785H315.836
	c-39.969-159.877-31.976-330.785-31.976-330.785v-12.951h199.847L483.707,176.825L483.707,176.825z"/>
<path style="fill:#FFFFFF;" d="M307.842,176.825v-6.472h-23.981v6.472c0,0-7.993,170.908,31.976,330.785h23.981
	C299.849,347.734,307.842,176.825,307.842,176.825z"/>
<g>
	<path style="fill:#94C1FF;" d="M403.769,77.699v-9.75V51.96V35.973V19.985V3.997h23.981v15.988v15.988V51.96v15.988v9.75
		c47.963,22.226,39.97,70.188,63.951,86.176h-7.994H467.72C443.739,147.887,451.732,99.924,403.769,77.699z"/>
	<path style="fill:#94C1FF;" d="M459.726,176.825v-6.472h23.981v6.472c0,0,7.994,170.908-31.976,330.785H427.75
		C467.72,347.734,459.726,176.825,459.726,176.825z"/>
	<rect x="283.865" y="163.874" style="fill:#94C1FF;" width="199.85" height="6.479"/>
</g>
<path style="fill:#D7E9FF;" d="M83.854,483.629v15.987c0,4.396,3.599,7.994,7.994,7.994h111.914c4.396,0,7.994-3.599,7.994-7.994
	v-15.987H83.854z"/>
<path style="fill:#FFFFFF;" d="M99.842,499.616v-15.987H83.854v15.987c0,4.396,3.599,7.994,7.994,7.994h15.988
	C103.441,507.611,99.842,504.012,99.842,499.616z"/>
<path style="fill:#94C1FF;" d="M195.768,499.616v-15.987h15.988v15.987c0,4.396-3.599,7.994-7.994,7.994h-15.987
	C192.169,507.611,195.768,504.012,195.768,499.616z"/>
<rect x="83.855" y="211.834" style="fill:#FFFFFF;" width="15.988" height="39.969"/>
<g style="opacity:0.4;">
	<rect x="83.855" y="251.804" style="fill:#FFFFFF;" width="15.988" height="231.82"/>
</g>
<rect x="195.765" y="251.804" style="fill:#5C9EFF;" width="15.988" height="231.82"/>
<rect x="195.765" y="211.834" style="fill:#94C1FF;" width="15.988" height="39.969"/>
<g>
	<path style="fill:#116FFF;" d="M275.867,167.871c-1.281,0-2.545-0.624-3.326-1.78c-1.218-1.834-0.718-4.317,1.108-5.542
		c8.587-5.722,12.771-16.581,17.628-29.157c7.447-19.313,16.721-43.35,46.869-57.323c1.983-0.921,4.372-0.055,5.309,1.952
		c0.922,1.999,0.047,4.379-1.951,5.308c-27.214,12.607-35.473,34.037-42.764,52.944c-5.121,13.263-9.962,25.792-20.656,32.928
		C277.412,167.653,276.632,167.871,275.867,167.871z"/>
	<path style="fill:#116FFF;" d="M339.818,81.696c-2.201,0-3.997-1.788-3.997-3.997V3.997c0-2.209,1.796-3.997,3.997-3.997
		c2.218,0,3.997,1.788,3.997,3.997v73.701C343.815,79.908,342.035,81.696,339.818,81.696z"/>
	<path style="fill:#116FFF;" d="M451.732,511.608c-0.312,0-0.64-0.039-0.968-0.117c-2.139-0.538-3.435-2.709-2.904-4.848
		c39.36-157.442,31.944-327.928,31.866-329.63c-0.109-2.209,1.593-4.075,3.794-4.177c2.154-0.281,4.091,1.601,4.185,3.802
		c0.078,1.718,7.557,173.328-32.085,331.94C455.166,510.398,453.528,511.608,451.732,511.608z"/>
	<path style="fill:#116FFF;" d="M315.836,511.608c-1.795,0-3.419-1.21-3.872-3.029c-39.657-158.612-32.179-330.223-32.085-331.94
		c0.094-2.201,1.999-4.051,4.169-3.802c2.201,0.102,3.919,1.968,3.81,4.177c-0.078,1.702-7.494,172.188,31.866,329.63
		c0.53,2.139-0.765,4.31-2.92,4.848C316.493,511.569,316.164,511.608,315.836,511.608z"/>
	<path style="fill:#116FFF;" d="M491.701,167.871c-0.766,0-1.53-0.219-2.217-0.671c-10.695-7.136-15.535-19.665-20.641-32.928
		c-7.291-18.907-15.566-40.336-42.764-52.944c-2.015-0.929-2.873-3.31-1.952-5.308c0.937-2.006,3.325-2.873,5.309-1.952
		c30.148,13.974,39.407,38.01,46.854,57.323c4.855,12.576,9.04,23.435,17.627,29.157c1.842,1.226,2.342,3.708,1.108,5.542
		C494.262,167.247,492.997,167.871,491.701,167.871z"/>
	<path style="fill:#116FFF;" d="M427.75,81.696c-2.201,0-3.997-1.788-3.997-3.997V3.997c0-2.209,1.796-3.997,3.997-3.997
		c2.217,0,3.997,1.788,3.997,3.997v73.701C431.747,79.908,429.967,81.696,427.75,81.696z"/>
	<path style="fill:#116FFF;" d="M427.75,7.994h-87.933c-2.201,0-3.997-1.788-3.997-3.997S337.616,0,339.817,0h87.933
		c2.217,0,3.997,1.788,3.997,3.997S429.967,7.994,427.75,7.994z"/>
	<path style="fill:#116FFF;" d="M451.732,511.608H315.836c-2.201,0-3.997-1.788-3.997-3.997s1.796-3.997,3.997-3.997h135.896
		c2.218,0,3.997,1.788,3.997,3.997S453.95,511.608,451.732,511.608z"/>
	<path style="fill:#116FFF;" d="M491.701,167.871H275.867c-2.202,0-3.997-1.788-3.997-3.997s1.795-3.997,3.997-3.997h215.834
		c2.217,0,3.997,1.788,3.997,3.997C495.699,166.084,493.918,167.871,491.701,167.871z"/>
	<path style="fill:#116FFF;" d="M355.806,23.982h-15.988c-2.201,0-3.997-1.787-3.997-3.997s1.796-3.997,3.997-3.997h15.988
		c2.217,0,3.997,1.787,3.997,3.997S358.023,23.982,355.806,23.982z"/>
	<path style="fill:#116FFF;" d="M355.806,39.97h-15.988c-2.201,0-3.997-1.788-3.997-3.997s1.796-3.997,3.997-3.997h15.988
		c2.217,0,3.997,1.788,3.997,3.997S358.023,39.97,355.806,39.97z"/>
	<path style="fill:#116FFF;" d="M355.806,55.957h-15.988c-2.201,0-3.997-1.788-3.997-3.997c0-2.209,1.796-3.997,3.997-3.997h15.988
		c2.217,0,3.997,1.788,3.997,3.997C359.803,54.17,358.023,55.957,355.806,55.957z"/>
	<path style="fill:#116FFF;" d="M355.806,71.946h-15.988c-2.201,0-3.997-1.788-3.997-3.997s1.796-3.997,3.997-3.997h15.988
		c2.217,0,3.997,1.788,3.997,3.997C359.803,70.158,358.023,71.946,355.806,71.946z"/>
	<path style="fill:#116FFF;" d="M427.75,23.982h-15.987c-2.202,0-3.997-1.787-3.997-3.997s1.795-3.997,3.997-3.997h15.987
		c2.217,0,3.997,1.787,3.997,3.997S429.967,23.982,427.75,23.982z"/>
	<path style="fill:#116FFF;" d="M427.75,39.97h-15.987c-2.202,0-3.997-1.788-3.997-3.997s1.795-3.997,3.997-3.997h15.987
		c2.217,0,3.997,1.788,3.997,3.997S429.967,39.97,427.75,39.97z"/>
	<path style="fill:#116FFF;" d="M427.75,55.957h-15.987c-2.202,0-3.997-1.788-3.997-3.997c0-2.209,1.795-3.997,3.997-3.997h15.987
		c2.217,0,3.997,1.788,3.997,3.997C431.747,54.17,429.967,55.957,427.75,55.957z"/>
	<path style="fill:#116FFF;" d="M427.75,71.946h-15.987c-2.202,0-3.997-1.788-3.997-3.997s1.795-3.997,3.997-3.997h15.987
		c2.217,0,3.997,1.788,3.997,3.997C431.747,70.158,429.967,71.946,427.75,71.946z"/>
	<path style="fill:#116FFF;" d="M83.854,503.614c-2.209,0-3.997-1.788-3.997-3.997V211.838c0-2.209,1.787-3.997,3.997-3.997
		s3.997,1.787,3.997,3.997v287.779C87.851,501.825,86.064,503.614,83.854,503.614z"/>
	<path style="fill:#116FFF;" d="M211.756,503.614c-2.209,0-3.997-1.788-3.997-3.997V211.838c0-2.209,1.788-3.997,3.997-3.997
		s3.997,1.787,3.997,3.997v287.779C215.753,501.825,213.965,503.614,211.756,503.614z"/>
	<path style="fill:#116FFF;" d="M203.762,511.608H91.848c-2.209,0-3.997-1.788-3.997-3.997s1.788-3.997,3.997-3.997h111.914
		c2.209,0,3.997,1.788,3.997,3.997S205.972,511.608,203.762,511.608z"/>
	<path style="fill:#116FFF;" d="M195.768,487.626H99.842c-2.209,0-3.997-1.788-3.997-3.997s1.788-3.997,3.997-3.997h95.926
		c2.209,0,3.997,1.788,3.997,3.997S197.978,487.626,195.768,487.626z"/>
	<path style="fill:#116FFF;" d="M211.756,215.835H83.854c-2.209,0-3.997-1.788-3.997-3.997s1.787-3.997,3.997-3.997h127.902
		c2.209,0,3.997,1.787,3.997,3.997S213.965,215.835,211.756,215.835z"/>
	<path style="fill:#116FFF;" d="M203.762,255.804H91.848c-2.209,0-3.997-1.788-3.997-3.997s1.788-3.997,3.997-3.997h111.914
		c2.209,0,3.997,1.788,3.997,3.997S205.972,255.804,203.762,255.804z"/>
	<path style="fill:#116FFF;" d="M187.783,199.847c-0.18,0-0.359-0.008-0.539-0.031c-2.186-0.297-3.724-2.303-3.435-4.497
		l15.987-119.908c0.297-2.186,2.35-3.7,4.497-3.435c2.186,0.296,3.724,2.303,3.435,4.497l-15.987,119.908
		C191.467,198.387,189.749,199.847,187.783,199.847z"/>
	<path style="fill:#116FFF;" d="M91.848,511.608c-6.612,0-11.99-5.379-11.99-11.991c0-2.209,1.787-3.996,3.997-3.996
		s3.997,1.787,3.997,3.996c0,2.201,1.796,3.997,3.997,3.997c2.209,0,3.997,1.788,3.997,3.997S94.057,511.608,91.848,511.608z"/>
	<path style="fill:#116FFF;" d="M203.762,511.608c-2.209,0-3.997-1.788-3.997-3.997s1.788-3.997,3.997-3.997
		c2.202,0,3.997-1.796,3.997-3.997c0-2.209,1.788-3.996,3.997-3.996s3.997,1.787,3.997,3.996
		C215.753,506.229,210.374,511.608,203.762,511.608z"/>
	<path style="fill:#116FFF;" d="M67.874,263.236c-0.195,0-0.382-0.016-0.578-0.039c-29.298-4.23-51.39-29.743-51.39-59.353
		c0-33.061,26.894-59.954,59.954-59.954c29.688,0,55.208,22.101,59.36,51.398c0.312,2.186-1.21,4.207-3.396,4.52
		c-2.155,0.242-4.216-1.218-4.521-3.396c-3.599-25.387-25.714-44.528-51.444-44.528c-28.65,0-51.96,23.31-51.96,51.96
		c0,25.66,19.149,47.775,44.536,51.437c2.186,0.32,3.7,2.341,3.388,4.528C71.535,261.799,69.826,263.236,67.874,263.236z"/>
	<path style="fill:#116FFF;" d="M75.861,191.853c-2.209,0-3.997-1.787-3.997-3.997v-23.982c0-2.209,1.788-3.997,3.997-3.997
		s3.997,1.788,3.997,3.997v23.982C79.858,190.066,78.07,191.853,75.861,191.853z"/>
	<path style="fill:#116FFF;" d="M67.867,194.008c-1.382,0-2.725-0.719-3.458-1.999l-11.991-20.781
		c-1.108-1.913-0.453-4.356,1.46-5.457c1.913-1.124,4.364-0.453,5.457,1.46l11.99,20.78c1.109,1.913,0.453,4.356-1.459,5.457
		C69.233,193.836,68.546,194.008,67.867,194.008z"/>
	<path style="fill:#116FFF;" d="M62.035,199.847c-0.68,0-1.366-0.172-1.999-0.531l-20.789-11.991
		c-1.913-1.108-2.568-3.552-1.467-5.465c1.101-1.912,3.536-2.561,5.464-1.468l20.789,11.991c1.913,1.108,2.568,3.552,1.468,5.464
		C64.76,199.129,63.417,199.847,62.035,199.847z"/>
	<path style="fill:#116FFF;" d="M59.872,207.841H35.891c-2.209,0-3.997-1.788-3.997-3.997s1.788-3.997,3.997-3.997h23.981
		c2.21,0,3.997,1.788,3.997,3.997S62.082,207.841,59.872,207.841z"/>
	<path style="fill:#116FFF;" d="M41.246,227.825c-1.382,0-2.725-0.718-3.466-1.999c-1.101-1.913-0.445-4.356,1.467-5.464
		l20.789-11.991c1.913-1.093,4.356-0.444,5.465,1.468c1.101,1.913,0.445,4.356-1.468,5.465l-20.788,11.991
		C42.613,227.654,41.926,227.825,41.246,227.825z"/>
	<path style="fill:#116FFF;" d="M55.876,242.455c-0.679,0-1.366-0.171-1.999-0.539c-1.913-1.101-2.568-3.544-1.46-5.457
		l11.991-20.781c1.093-1.913,3.536-2.583,5.457-1.459c1.913,1.101,2.568,3.544,1.459,5.457l-11.99,20.781
		C58.6,241.737,57.258,242.455,55.876,242.455z"/>
	<path style="fill:#116FFF;" d="M83.854,194.008c-0.679,0-1.366-0.172-1.999-0.539c-1.913-1.101-2.568-3.544-1.46-5.457
		l11.991-20.78c1.093-1.913,3.536-2.584,5.457-1.46c1.913,1.101,2.568,3.544,1.459,5.457l-11.99,20.781
		C86.578,193.289,85.236,194.008,83.854,194.008z"/>
	<path style="fill:#116FFF;" d="M164.019,391.7c-2.209,0-4.036-1.788-4.036-3.997s1.748-3.996,3.95-3.996h0.086
		c2.202,0,3.997,1.787,3.997,3.996S166.221,391.7,164.019,391.7z"/>
	<path style="fill:#116FFF;" d="M180.007,415.681c-2.209,0-4.036-1.787-4.036-3.996c0-2.21,1.749-3.998,3.95-3.998h0.086
		c2.201,0,3.997,1.788,3.997,3.998C184.004,413.894,182.208,415.681,180.007,415.681z"/>
	<path style="fill:#116FFF;" d="M164.019,431.669c-2.209,0-4.036-1.788-4.036-3.997s1.748-3.997,3.95-3.997h0.086
		c2.202,0,3.997,1.788,3.997,3.997S166.221,431.669,164.019,431.669z"/>
</g>
<g>
</g>
<g>
</g>
<g>
</g>
<g>
</g>
<g>
</g>
<g>
</g>
<g>
</g>
<g>
</g>
<g>
</g>
<g>
</g>
<g>
</g>
<g>
</g>
<g>
</g>
<g>
</g>
<g>
</g>
</svg>
